<?xml version="1.0" standalone="no"?>
<!DOCTYPE svg PUBLIC "-//W3C//DTD SVG 20010904//EN"
 "http://www.w3.org/TR/2001/REC-SVG-20010904/DTD/svg10.dtd">
<svg version="1.0" xmlns="http://www.w3.org/2000/svg"
 width="256.000000pt" height="256.000000pt" viewBox="0 0 256.000000 256.000000"
 preserveAspectRatio="xMidYMid meet">

<g transform="translate(0.000000,256.000000) scale(0.100000,-0.100000)"
fill="#000000" stroke="none">
<path d="M1085 2455 c-24 -23 -25 -28 -25 -179 l0 -154 31 -26 c27 -23 39 -26
105 -26 l74 0 0 -120 0 -120 -52 0 c-95 0 -260 -53 -283 -91 -5 -7 -28 9 -61
42 l-54 53 49 51 c26 27 55 61 65 75 17 26 21 96 7 119 -5 8 -58 63 -117 122
-113 113 -141 129 -201 114 -38 -9 -319 -290 -328 -328 -16 -61 2 -95 103
-199 53 -55 109 -106 124 -114 65 -34 133 -9 213 75 l29 31 57 -56 c51 -50 56
-60 48 -81 -5 -13 -9 -71 -9 -128 0 -95 -2 -106 -27 -144 l-27 -41 -88 0 -88
0 0 56 c0 48 -4 59 -29 85 l-29 29 -201 0 c-197 0 -200 0 -228 -24 -28 -24
-28 -25 -31 -166 -5 -226 -1 -230 257 -230 234 0 261 12 261 119 l0 51 90 0
89 0 17 -35 c10 -21 33 -45 55 -58 28 -16 43 -33 53 -64 22 -63 72 -130 127
-170 46 -33 50 -39 47 -72 l-3 -36 -120 -6 c-76 -4 -133 -12 -155 -22 -100
-44 -167 -126 -195 -235 -13 -49 -16 -102 -13 -241 3 -174 4 -180 27 -205 l24
-26 608 0 607 0 26 31 c26 30 26 32 26 198 0 244 -20 322 -104 406 -71 70
-122 88 -263 93 -105 3 -123 6 -124 21 -3 39 4 67 19 75 31 18 104 91 120 120
9 17 24 48 32 68 8 20 31 47 50 60 19 13 44 40 55 61 l20 37 93 0 92 0 0 -51
c0 -108 24 -119 255 -119 266 0 269 2 263 230 -3 141 -3 142 -31 166 -28 24
-31 24 -228 24 l-201 0 -29 -29 c-25 -26 -29 -37 -29 -85 l0 -56 -92 0 -93 1
-27 45 c-26 41 -28 54 -28 142 l1 97 67 65 c37 36 77 74 90 85 l23 19 60 -60
c59 -59 60 -59 120 -59 l60 0 114 116 115 116 0 50 c0 64 -20 93 -178 245
-175 169 -192 170 -354 11 -154 -152 -161 -190 -55 -301 l61 -63 -71 -70 -70
-71 -54 41 c-57 43 -142 76 -221 87 l-48 7 0 118 0 119 83 0 c136 0 150 22
145 223 -3 127 -4 137 -27 161 l-24 26 -209 0 c-208 0 -209 0 -233 -25z m353
-87 c7 -7 12 -19 12 -28 0 -18 -151 -170 -169 -170 -6 0 -29 16 -51 37 -44 39
-51 76 -18 97 13 8 23 5 43 -14 l26 -24 57 57 c57 58 78 67 100 45z m-660
-221 c75 -74 95 -100 95 -122 0 -23 -26 -53 -135 -162 -74 -73 -143 -133 -153
-133 -10 0 -62 44 -116 97 -74 72 -99 103 -99 122 0 36 253 291 289 291 17 0
52 -28 119 -93z m1359 -40 c83 -83 133 -140 133 -153 0 -22 -198 -224 -220
-224 -22 0 -290 272 -290 294 0 31 188 216 219 216 19 0 59 -34 158 -133z
m-1000 -603 c81 -62 151 -85 328 -107 l100 -12 0 -110 c0 -131 -17 -186 -79
-253 -63 -69 -106 -87 -206 -87 -71 0 -93 4 -133 25 -59 29 -101 76 -133 144
-22 47 -24 64 -24 206 l0 156 48 37 c26 20 48 37 49 37 2 0 24 -16 50 -36z
m-669 -116 c7 -7 12 -18 12 -26 0 -21 -144 -162 -166 -162 -30 0 -96 73 -92
101 4 32 34 36 64 8 l25 -23 57 57 c57 58 78 67 100 45z m1840 0 c7 -7 12 -18
12 -26 0 -23 -141 -162 -164 -162 -28 0 -96 69 -96 96 0 33 36 41 70 16 l27
-21 54 55 c54 55 75 64 97 42z m-967 -606 l12 -53 -39 -40 -39 -40 -42 45
c-40 45 -41 48 -27 74 7 15 14 34 14 43 0 23 3 24 58 24 l50 0 13 -53z m-164
-136 l90 -95 7 -200 8 -201 -181 0 -181 0 0 156 c0 159 -7 194 -38 194 -33 0
-42 -22 -42 -102 l0 -78 -71 0 -71 0 4 118 c4 130 18 170 80 229 56 54 111 73
214 73 l91 0 90 -94z m681 -438 l-3 -53 -67 -3 -68 -3 0 56 0 55 71 0 70 0 -3
-52z m-1018 -8 l0 -51 -67 3 -68 3 -3 48 -3 47 70 0 71 0 0 -50z"/>
<path d="M621 2108 c-5 -13 -12 -43 -15 -68 -13 -78 -15 -82 -46 -75 -19 4
-33 1 -44 -10 -19 -19 -19 -21 -6 -45 13 -25 115 -39 135 -19 16 17 51 200 42
223 -10 25 -56 20 -66 -6z"/>
<path d="M1904 2067 c-3 -8 -4 -41 -2 -73 l3 -59 70 -3 c108 -5 173 5 180 29
13 39 -12 50 -99 48 l-81 -2 -5 34 c-4 28 -10 35 -33 37 -17 2 -29 -2 -33 -11z"/>
<path d="M1092 1348 c-35 -35 14 -102 57 -79 45 25 33 91 -17 91 -16 0 -33 -5
-40 -12z"/>
<path d="M1392 1348 c-35 -35 14 -102 57 -79 45 25 33 91 -17 91 -16 0 -33 -5
-40 -12z"/>
<path d="M1256 1277 c-13 -10 -17 -24 -14 -57 3 -39 6 -45 27 -48 45 -7 70 67
35 102 -19 19 -25 20 -48 3z"/>
<path d="M1190 1080 c-17 -31 27 -70 79 -70 76 0 123 42 87 78 -14 14 -21 14
-51 4 -25 -10 -40 -10 -54 -3 -30 16 -49 13 -61 -9z"/>
</g>
</svg>
